<?xml version="1.0" encoding="UTF-8" standalone="no"?>
<!DOCTYPE svg PUBLIC "-//W3C//DTD SVG 1.1//EN" "http://www.w3.org/Graphics/SVG/1.1/DTD/svg11.dtd">
<!-- Generated by Microsoft Visio, SVG Export architecture.svg Page-1 -->
<svg xmlns="http://www.w3.org/2000/svg" xmlns:xlink="http://www.w3.org/1999/xlink" xmlns:ev="http://www.w3.org/2001/xml-events"
		xmlns:v="http://schemas.microsoft.com/visio/2003/SVGExtensions/" width="7.03116in" height="4.7187in"
		viewBox="0 0 506.244 339.746" xml:space="preserve" color-interpolation-filters="sRGB" class="st18">
	<v:documentProperties v:langID="2057" v:metric="true" v:viewMarkup="false"/>

	<style type="text/css">
	<![CDATA[
		.st1 {fill:#ffffff;stroke:none;stroke-linecap:round;stroke-linejoin:round;stroke-width:0.5}
		.st2 {fill:#f6efd9;stroke:#b8b8b8;stroke-linecap:round;stroke-linejoin:round;stroke-width:0.5}
		.st3 {fill:#eaeaea;stroke:#262626;stroke-linecap:round;stroke-linejoin:round;stroke-width:0.5}
		.st4 {fill:#eaeaea}
		.st5 {stroke:#262626;stroke-linecap:round;stroke-linejoin:round;stroke-width:0.5}
		.st6 {fill:#262626}
		.st7 {fill:#7f7f7f;stroke:none;stroke-linecap:round;stroke-linejoin:round;stroke-width:6.375}
		.st8 {fill:#676767;stroke:none;stroke-linecap:round;stroke-linejoin:round;stroke-width:6.375}
		.st9 {fill:#545454;stroke:none;stroke-linecap:butt;stroke-width:0.75}
		.st10 {marker-end:url(#mrkr6-45);stroke:#b8b8b8;stroke-linecap:round;stroke-linejoin:round;stroke-width:0.5}
		.st11 {fill:#b8b8b8;fill-opacity:1;stroke:#b8b8b8;stroke-opacity:1;stroke-width:0.16556291390728}
		.st12 {stroke:#b8b8b8;stroke-linecap:round;stroke-linejoin:round;stroke-width:0.5}
		.st13 {fill:#000000;font-family:Arial;font-size:1.16666em}
		.st14 {fill:#f4f4f4;stroke:#262626;stroke-linecap:round;stroke-linejoin:round;stroke-width:0.5}
		.st15 {fill:#f6efd9;stroke:none;stroke-linecap:round;stroke-linejoin:round;stroke-width:0.5}
		.st16 {fill:none;stroke:none;stroke-linecap:round;stroke-linejoin:round;stroke-width:0.5}
		.st17 {fill:#4d4d4d;font-family:Bradley Hand ITC;font-size:1.5em;font-weight:bold}
		.st18 {fill:none;fill-rule:evenodd;font-size:12px;overflow:visible;stroke-linecap:square;stroke-miterlimit:3}
	]]>
	</style>

	<defs id="Markers">
		<g id="lend6">
			<path d="M 2 1 L 0 0 L 2.01237 -1.00641 C 2.32921 -0.372876 2.32921 0.372869 2.01238 1.0064 " style="stroke:none"/>
		</g>
		<marker id="mrkr6-45" class="st11" v:arrowType="6" v:arrowSize="2" v:setback="13.59" refX="-13.59" orient="auto"
				markerUnits="strokeWidth" overflow="visible">
			<use xlink:href="#lend6" transform="scale(-6.04,-6.04) "/>
		</marker>
	</defs>
	<g v:mID="0" v:index="1" v:groupContext="foregroundPage">
		<title>Page-1</title>
		<v:pageProperties v:drawingScale="0.0393701" v:pageScale="0.0393701" v:drawingUnits="24" v:shadowOffsetX="8.50394"
				v:shadowOffsetY="-8.50394"/>
		<v:layer v:name="Flowchart" v:index="0"/>
		<v:layer v:name="Connector" v:index="1"/>
		<g id="shape44-1" v:mID="44" v:groupContext="shape" transform="translate(0.165244,-0.262792)">
			<title>Sheet.44</title>
			<rect x="0" y="0.439279" width="505.984" height="339.307" class="st1"/>
		</g>
		<g id="shape40-3" v:mID="40" v:groupContext="shape" transform="translate(115.68,-17.8964)">
			<title>Sheet.40</title>
			<path d="M3.54 219.9 C7.67 212.08 8.42 203.41 12.04 197.22 C18.34 186.48 33.31 183.21 48.33 180.21 C72.93 175.31 97.68
						 171.16 119.2 164.62 C132.75 160.51 145.01 155.45 157.18 149.03 C171.39 141.53 185.46 132.17 197.71 122.1
						 C207.68 113.91 216.45 105.26 223.22 93.76 C233.06 77.07 238.7 54.39 254.41 42.74 C267.38 33.11 287.22 31.01
						 302.59 35.65 C323.74 42.02 336.44 61.15 345.12 82.42 C360.24 119.49 363.13 163.06 363.54 207.15 C363.74
						 229.67 363.3 252.32 362.12 275.18 C361.31 290.9 360.15 306.73 352.77 316.28 C344.15 327.42 327.05 330.03
						 309.68 331.87 C260.51 337.08 209.11 336.2 155.19 338.39 C111.29 340.17 65.71 343.97 36.99 327.05 C4.54 307.93
						 -6.4 262.34 3.54 219.9 Z" class="st2"/>
		</g>
		<g id="shape26-5" v:mID="26" v:groupContext="shape" transform="translate(370.714,-245.46)">
			<title>Circle.26</title>
			<v:userDefs>
				<v:ud v:nameU="visVersion" v:val="VT0(15):26"/>
			</v:userDefs>
			<path d="M0 314.21 A25.5386 25.5386 0 0 1 51.08 314.21 A25.5386 25.5386 0 1 1 0 314.21 Z" class="st3"/>
		</g>
		<g id="shape5-7" v:mID="5" v:groupContext="shape" transform="translate(169.709,-245.46)">
			<title>Circle</title>
			<v:userDefs>
				<v:ud v:nameU="visVersion" v:val="VT0(15):26"/>
			</v:userDefs>
			<path d="M0 314.21 A25.5386 25.5386 0 0 1 51.08 314.21 A25.5386 25.5386 0 1 1 0 314.21 Z" class="st3"/>
		</g>
		<g id="shape13-9" v:mID="13" v:groupContext="shape" v:layerMember="0" transform="translate(172.57,-132.641)">
			<title>Disk storage</title>
			<v:custProps>
				<v:cp v:nameU="Cost" v:lbl="Cost" v:type="7" v:format="@" v:langID="1033"/>
				<v:cp v:nameU="Duration" v:lbl="Duration" v:type="2" v:langID="1033"/>
				<v:cp v:nameU="Resources" v:lbl="Resources" v:langID="1033"/>
			</v:custProps>
			<v:userDefs>
				<v:ud v:nameU="visVersion" v:val="VT0(15):26"/>
			</v:userDefs>
			<path d="M0 317.07 L0 335.21 A22.6772 4.53543 -180 1 0 45.35 335.21 L45.35 317.07 A22.6772 4.53543 -180 0 0 0 317.07 Z"
					class="st4"/>
			<path d="M0 317.07 L0 335.21 A22.6772 4.53543 -180 1 0 45.35 335.21 L45.35 317.07 A22.6772 4.53543 -180 0 0 0 317.07"
					class="st5"/>
			<path d="M0 317.07 A22.6772 4.53543 -180 1 0 45.35 317.07" class="st5"/>
			<path d="M0 319.34 A22.6772 4.53543 -180 1 0 45.35 319.34" class="st5"/>
		</g>
		<g id="shape14-14" v:mID="14" v:groupContext="shape" v:layerMember="0" transform="translate(172.57,-113.507)">
			<title>Disk storage.14</title>
			<v:custProps>
				<v:cp v:nameU="Cost" v:lbl="Cost" v:type="7" v:format="@" v:langID="1033"/>
				<v:cp v:nameU="Duration" v:lbl="Duration" v:type="2" v:langID="1033"/>
				<v:cp v:nameU="Resources" v:lbl="Resources" v:langID="1033"/>
			</v:custProps>
			<v:userDefs>
				<v:ud v:nameU="visVersion" v:val="VT0(15):26"/>
			</v:userDefs>
			<path d="M0 317.07 L0 335.21 A22.6772 4.53543 -180 1 0 45.35 335.21 L45.35 317.07 A22.6772 4.53543 -180 0 0 0 317.07 Z"
					class="st4"/>
			<path d="M0 317.07 L0 335.21 A22.6772 4.53543 -180 1 0 45.35 335.21 L45.35 317.07 A22.6772 4.53543 -180 0 0 0 317.07"
					class="st5"/>
			<path d="M0 317.07 A22.6772 4.53543 -180 1 0 45.35 317.07" class="st5"/>
			<path d="M0 319.34 A22.6772 4.53543 -180 1 0 45.35 319.34" class="st5"/>
		</g>
		<g id="shape15-19" v:mID="15" v:groupContext="shape" v:layerMember="0" transform="translate(172.57,-95.0054)">
			<title>Disk storage.15</title>
			<v:custProps>
				<v:cp v:nameU="Cost" v:lbl="Cost" v:type="7" v:format="@" v:langID="1033"/>
				<v:cp v:nameU="Duration" v:lbl="Duration" v:type="2" v:langID="1033"/>
				<v:cp v:nameU="Resources" v:lbl="Resources" v:langID="1033"/>
			</v:custProps>
			<v:userDefs>
				<v:ud v:nameU="visVersion" v:val="VT0(15):26"/>
			</v:userDefs>
			<path d="M0 317.07 L0 335.21 A22.6772 4.53543 -180 1 0 45.35 335.21 L45.35 317.07 A22.6772 4.53543 -180 0 0 0 317.07 Z"
					class="st4"/>
			<path d="M0 317.07 L0 335.21 A22.6772 4.53543 -180 1 0 45.35 335.21 L45.35 317.07 A22.6772 4.53543 -180 0 0 0 317.07"
					class="st5"/>
			<path d="M0 317.07 A22.6772 4.53543 -180 1 0 45.35 317.07" class="st5"/>
			<path d="M0 319.34 A22.6772 4.53543 -180 1 0 45.35 319.34" class="st5"/>
		</g>
		<g id="group17-24" transform="translate(39.7968,-245.46)" v:mID="17" v:groupContext="group">
			<v:custProps>
				<v:cp v:nameU="AssetNumber" v:lbl="Asset Number" v:prompt="" v:type="0" v:format="" v:sortKey="Asset"
						v:invis="false" v:ask="false" v:langID="1033" v:cal="0"/>
				<v:cp v:nameU="SerialNumber" v:lbl="Serial Number" v:prompt="" v:type="0" v:format="" v:sortKey="Asset"
						v:invis="false" v:ask="false" v:langID="1033" v:cal="0"/>
				<v:cp v:nameU="Location" v:lbl="Location" v:prompt="" v:type="0" v:format="" v:sortKey="Asset" v:invis="false"
						v:ask="false" v:langID="1033" v:cal="0"/>
				<v:cp v:nameU="Building" v:lbl="Building" v:prompt="" v:type="0" v:format="" v:sortKey="Asset" v:invis="false"
						v:ask="false" v:langID="1033" v:cal="0"/>
				<v:cp v:nameU="Room" v:lbl="Room" v:prompt="" v:type="0" v:format="" v:sortKey="Asset" v:invis="false"
						v:ask="false" v:langID="1033" v:cal="0"/>
				<v:cp v:nameU="Manufacturer" v:lbl="Manufacturer" v:prompt="" v:type="0" v:format="" v:sortKey="Equipment"
						v:invis="false" v:ask="false" v:langID="1033" v:cal="0"/>
				<v:cp v:nameU="ProductNumber" v:lbl="Product Number" v:prompt="" v:type="0" v:format="" v:sortKey="Equipment"
						v:invis="false" v:ask="false" v:langID="1033" v:cal="0"/>
				<v:cp v:nameU="PartNumber" v:lbl="Part Number" v:prompt="" v:type="0" v:format="" v:sortKey="Equipment"
						v:invis="false" v:ask="false" v:langID="1033" v:cal="0"/>
				<v:cp v:nameU="ProductDescription" v:lbl="Product Description" v:prompt="" v:type="0" v:format=""
						v:sortKey="Equipment" v:invis="false" v:ask="false" v:langID="1033" v:cal="0"/>
				<v:cp v:nameU="NetworkName" v:lbl="Network Name" v:prompt="" v:type="0" v:format="" v:sortKey="Network"
						v:invis="false" v:ask="false" v:langID="1033" v:cal="0"/>
				<v:cp v:nameU="IPAddress" v:lbl="IP Address" v:prompt="" v:type="0" v:format="" v:sortKey="Network" v:invis="false"
						v:ask="false" v:langID="1033" v:cal="0"/>
				<v:cp v:nameU="SubnetMask" v:lbl="Subnet Mask" v:prompt="" v:type="0" v:format="" v:sortKey="Network"
						v:invis="false" v:ask="false" v:langID="1033" v:cal="0"/>
				<v:cp v:nameU="AdminInterface" v:lbl="Administrative Interface" v:prompt="" v:type="0" v:format=""
						v:sortKey="Network" v:invis="false" v:ask="false" v:langID="1033" v:cal="0"/>
				<v:cp v:nameU="NumberofPorts" v:lbl="Number of Ports" v:prompt="" v:type="0" v:format="" v:sortKey="Network"
						v:invis="false" v:ask="false" v:langID="1033" v:cal="0"/>
				<v:cp v:nameU="CommunityString" v:lbl="Community String" v:prompt="" v:type="0" v:format="" v:sortKey="Network"
						v:invis="false" v:ask="false" v:langID="1033" v:cal="0"/>
				<v:cp v:nameU="NetworkDescription" v:lbl="Network Description" v:prompt="" v:type="0" v:format=""
						v:sortKey="Network" v:invis="false" v:ask="false" v:langID="1033" v:cal="0"/>
				<v:cp v:nameU="MACAddress" v:lbl="MAC Address" v:prompt="" v:type="0" v:format="" v:sortKey="Network"
						v:invis="false" v:ask="false" v:langID="1033" v:cal="0"/>
				<v:cp v:nameU="CPU" v:lbl="CPU" v:prompt="" v:type="0" v:format="" v:sortKey="Workstation" v:invis="false"
						v:ask="false" v:langID="1033" v:cal="0"/>
				<v:cp v:nameU="Memory" v:lbl="Memory" v:prompt="" v:type="0" v:format="" v:sortKey="Workstation" v:invis="false"
						v:ask="false" v:langID="1033" v:cal="0"/>
				<v:cp v:nameU="OperatingSystem" v:lbl="Operating System" v:prompt="" v:type="0" v:format="" v:sortKey="Workstation"
						v:invis="false" v:ask="false" v:langID="1033" v:cal="0"/>
				<v:cp v:nameU="HardDriveSize" v:lbl="Hard Drive Capacity" v:prompt="" v:type="0" v:format=""
						v:sortKey="Workstation" v:invis="false" v:ask="false" v:langID="1033" v:cal="0"/>
				<v:cp v:nameU="ShapeClass" v:lbl="ShapeClass" v:prompt="" v:type="0" v:format="" v:sortKey="" v:invis="true"
						v:ask="false" v:langID="1033" v:cal="0" v:val="VT4(Equipment)"/>
				<v:cp v:nameU="ShapeType" v:lbl="ShapeType" v:prompt="" v:type="0" v:format="" v:sortKey="" v:invis="true"
						v:ask="false" v:langID="1033" v:cal="0" v:val="VT4(Computer)"/>
				<v:cp v:nameU="SubShapeType" v:lbl="SubShapeType" v:prompt="" v:type="0" v:format="" v:sortKey="" v:invis="true"
						v:ask="false" v:langID="1033" v:cal="0" v:val="VT4(Laptop)"/>
			</v:custProps>
			<v:userDefs>
				<v:ud v:nameU="visVersion" v:prompt="" v:val="VT0(15):26"/>
				<v:ud v:nameU="ShapeClass" v:prompt="" v:val="VT0(5):26"/>
				<v:ud v:nameU="SolSH" v:prompt="" v:val="VT15({BF0433D9-CD73-4EB5-8390-8653BE590246}):41"/>
				<v:ud v:nameU="visLegendShape" v:prompt="" v:val="VT0(2):26"/>
			</v:userDefs>
			<title>Laptop</title>
			<g id="shape18-25" v:mID="18" v:groupContext="shape" transform="translate(0,-4.7292)">
				<title>Sheet.18</title>
				<path d="M0 339.75 L51.08 339.75 L51.08 334.39 L46.7 327 L4.12 327 L0 334.39 L0 339.75 ZM46.84 325.78 L46.84 302.4
							 C46.84 300.04 44.93 298.13 42.57 298.13 L8.39 298.13 C6.03 298.13 4.12 300.04 4.12 302.4 L4.12 325.78
							 L46.84 325.78 Z" class="st3"/>
			</g>
			<g id="shape19-27" v:mID="19" v:groupContext="shape" transform="translate(5.02545,-10.6859)">
				<title>Sheet.19</title>
				<v:userDefs>
					<v:ud v:nameU="SurroundingRegionColor" v:prompt="" v:val="VT0(1):26"/>
					<v:ud v:nameU="SurroundingRegionColor" v:prompt="" v:val="VT5(#ebebeb)"/>
				</v:userDefs>
				<path d="M2.06 336.06 L0 339.75 L40.94 339.75 L38.87 336.06 L2.06 336.06 Z" class="st6"/>
			</g>
			<g id="shape20-30" v:mID="20" v:groupContext="shape" transform="translate(8.23524,-23.1406)">
				<title>Sheet.20</title>
				<v:userDefs>
					<v:ud v:nameU="SurroundingRegionColor" v:prompt="" v:val="VT0(1):26"/>
					<v:ud v:nameU="SurroundingRegionColor" v:prompt="" v:val="VT5(#ebebeb)"/>
				</v:userDefs>
				<rect x="0" y="320.538" width="34.6072" height="19.2088" class="st3"/>
			</g>
		</g>
		<g id="group21-32" transform="translate(18.537,-245.46)" v:mID="21" v:groupContext="group">
			<title>User</title>
			<g id="shape22-33" v:mID="22" v:groupContext="shape">
				<title>Sheet.22</title>
				<path d="M48.19 339.75 L0 339.75 L0 327.94 C0 326.16 0.9 324.39 2.41 323.21 C5.72 320.85 9.94 318.78 14.16 317.6
							 C17.47 316.71 20.78 316.12 24.09 316.12 C27.71 316.12 31.02 316.71 34.03 317.6 C38.25 318.78 42.47 320.55
							 45.78 323.21 C47.29 324.39 48.19 326.16 48.19 327.94 L48.19 339.75 ZM36.14 301.36 A12.0472 11.811 0
							 1 1 12.05 301.36 A12.0472 11.811 0 1 1 36.14 301.36 Z" class="st7"/>
			</g>
		</g>
		<g id="group24-35" transform="translate(380.947,-252.778)" v:mID="24" v:groupContext="group">
			<title>Gears</title>
			<g id="shape25-36" v:mID="25" v:groupContext="shape">
				<title>Sheet.25</title>
				<path d="M17.18 325.98 C17.51 326.54 17.75 327.14 17.93 327.78 L20 328.8 L20 331.11 L17.93 332.13 C17.75 332.77 17.51
							 333.37 17.18 333.93 L17.89 336.05 L16.24 337.71 L14.04 336.98 C13.47 337.3 12.86 337.53 12.21 337.71
							 L11.17 339.75 L8.83 339.75 L7.79 337.71 C7.14 337.53 6.53 337.3 5.96 336.98 L3.76 337.67 L2.11 336.05
							 L2.82 333.88 C2.49 333.33 2.25 332.73 2.07 332.08 L0 331.06 L0 328.75 L2.07 327.74 C2.25 327.14 2.49
							 326.49 2.82 325.94 L2.11 323.77 L3.76 322.15 L5.96 322.89 C6.53 322.57 7.14 322.33 7.79 322.15 L8.83
							 320.12 L11.17 320.12 L12.21 322.15 C12.82 322.33 13.47 322.57 14.04 322.89 L16.24 322.15 L17.93 323.81
							 L17.18 325.98 ZM10 333.42 C11.97 333.42 13.52 331.85 13.52 329.95 C13.52 328.06 11.97 326.49 10 326.49
							 C8.08 326.49 6.48 328.02 6.48 329.95 C6.48 331.85 8.03 333.42 10 333.42 ZM28.54 310.97 L30.61 311.99
							 L30.61 314.3 L28.54 315.31 C28.36 315.91 28.08 316.56 27.75 317.12 L28.5 319.29 L26.81 320.9 L24.6 320.16
							 C24.04 320.49 23.43 320.72 22.77 320.9 L21.74 322.93 L19.39 322.93 L18.36 320.9 C17.7 320.72 17.09 320.49
							 16.53 320.16 L14.32 320.9 L12.68 319.29 L13.43 317.12 C13.1 316.56 12.86 315.96 12.68 315.31 L10.61
							 314.3 L10.61 311.99 L12.68 310.97 C12.86 310.33 13.1 309.73 13.43 309.17 L12.68 307 L14.37 305.34 L16.57
							 306.08 C17.14 305.75 17.75 305.52 18.4 305.34 L19.44 303.31 L21.78 303.31 L22.82 305.34 C23.47 305.52
							 24.08 305.75 24.65 306.08 L26.85 305.34 L28.54 307 L27.79 309.17 C28.12 309.73 28.36 310.33 28.54 310.97
							 ZM20.61 316.61 C22.54 316.61 24.13 315.04 24.13 313.14 C24.13 311.25 22.58 309.68 20.61 309.68 C18.69
							 309.68 17.09 311.25 17.09 313.14 C17.09 315.04 18.64 316.61 20.61 316.61 Z" class="st8"/>
			</g>
		</g>
		<g id="shape32-38" v:mID="32" v:groupContext="shape" transform="translate(179.942,-257.392)">
			<title>Home</title>
			<v:userDefs>
				<v:ud v:nameU="msvShapeCategories" v:prompt="" v:val="VT4(Icon)"/>
				<v:ud v:nameU="visVersion" v:prompt="" v:val="VT0(15):26"/>
			</v:userDefs>
			<path d="M15.31 312.53 L8.61 319.36 L8.61 315.45 L6.7 315.45 L6.7 321.31 L0 328.13 L1.43 329.54 L3.83 327.11 L3.83 339.75
						 L26.78 339.75 L26.78 327.11 L29.18 329.54 L30.61 328.13 L15.31 312.53 ZM21.04 337.8 L16.26 337.8 L16.26
						 327.11 L21.04 327.11 L21.04 337.8 ZM24.87 337.8 L22 337.8 L22 326.14 L15.31 326.14 L15.31 337.8 L5.74 337.8
						 L5.74 325.17 L15.31 315.45 L24.87 325.17 L24.87 337.8 ZM8.61 331 L13.39 331 L13.39 326.14 L8.61 326.14 L8.61
						 331 ZM9.57 327.11 L12.44 327.11 L12.44 330.03 L9.57 330.03 L9.57 327.11 ZM18.17 333.92 a0.955699 0.97099
						 -180 0 0 0.956573 -0.971879 a0.955699 0.97099 -180 0 0 -0.956573 -0.971879 a0.955699 0.97099 -180 0 0 -0.956573
						 0.971879 a0.955699 0.97099 -180 0 0 0.956573 0.971879 Z" class="st9"/>
		</g>
		<g id="shape33-40" v:mID="33" v:groupContext="shape" v:layerMember="1" transform="translate(86.6388,-263.912)">
			<title>Dynamic connector</title>
			<path d="M0 332.66 L76.27 332.66" class="st10"/>
		</g>
		<g id="shape34-46" v:mID="34" v:groupContext="shape" v:layerMember="1" transform="translate(220.786,-263.912)">
			<title>Dynamic connector.34</title>
			<path d="M0 332.66 L143.13 332.66" class="st10"/>
		</g>
		<g id="shape35-51" v:mID="35" v:groupContext="shape" v:layerMember="1" transform="translate(389.166,-245.46)">
			<title>Dynamic connector.35</title>
			<path d="M7.09 339.75 L7.09 414.24" class="st10"/>
		</g>
		<g id="shape36-56" v:mID="36" v:groupContext="shape" v:layerMember="1" transform="translate(362.878,-120.027)">
			<title>Dynamic connector.36</title>
			<path d="M0 332.66 L-144.95 332.66" class="st12"/>
		</g>
		<g id="shape37-59" v:mID="37" v:groupContext="shape" v:layerMember="1" transform="translate(188.16,-245.46)">
			<title>Dynamic connector.37</title>
			<path d="M7.09 339.75 L7.09 425.35" class="st12"/>
		</g>
		<g id="shape6-62" v:mID="6" v:groupContext="shape" transform="translate(135.974,-211.286)">
			<title>Sheet.6</title>
			<desc>Login Node</desc>
			<v:textBlock v:margins="rect(4,4,4,4)" v:tabSpace="42.5197"/>
			<v:textRect cx="59.2732" cy="329.746" width="118.55" height="20"/>
			<rect x="0" y="319.746" width="118.546" height="20" class="st1"/>
			<text x="23.47" y="333.95" class="st13" v:langID="2057"><v:paragraph v:horizAlign="1"/><v:tabList/>Login Node</text>		</g>
		<g id="group1-65" transform="translate(353.76,-75.3809)" v:mID="1" v:groupContext="group">
			<v:custProps>
				<v:cp v:nameU="ShapeClass" v:lbl="ShapeClass" v:prompt="" v:type="0" v:format="" v:sortKey="" v:invis="true"
						v:ask="false" v:langID="1033" v:cal="0" v:val="VT4(Location)"/>
				<v:cp v:nameU="ShapeType" v:lbl="ShapeType" v:prompt="" v:type="0" v:format="" v:sortKey="" v:invis="true"
						v:ask="false" v:langID="1033" v:cal="0" v:val="VT4(Data Center)"/>
			</v:custProps>
			<v:userDefs>
				<v:ud v:nameU="visVersion" v:prompt="" v:val="VT0(15):26"/>
				<v:ud v:nameU="ShapeClass" v:prompt="" v:val="VT0(5):26"/>
				<v:ud v:nameU="SolSH" v:prompt="" v:val="VT15({BF0433D9-CD73-4EB5-8390-8653BE590246}):41"/>
				<v:ud v:nameU="visLegendShape" v:prompt="" v:val="VT0(2):26"/>
			</v:userDefs>
			<title>Data Center</title>
			<desc>Compute Servers</desc>
			<g id="shape2-66" v:mID="2" v:groupContext="shape" transform="translate(0,-14.6729)">
				<title>Sheet.2</title>
				<ellipse cx="51.7323" cy="325.076" rx="51.7323" ry="14.6703" class="st14"/>
			</g>
			<g id="shape3-68" v:mID="3" v:groupContext="shape" transform="translate(9.11827,-24.202)">
				<title>Sheet.3</title>
				<path d="M55.12 299.63 L29.51 299.63 L29.51 339.75 L55.12 339.75 L55.12 299.63 ZM25.61 299.63 L0 299.63 L0 339.75
							 L25.61 339.75 L25.61 299.63 ZM59.1 299.63 L59.1 339.75 L84.71 339.75 L84.71 299.63 L59.1 299.63 ZM44.74
							 286.45 L44.74 299.63 L55.12 299.63 L55.12 326.56 L59.1 326.56 L59.1 299.63 L70.34 299.63 L70.34 286.45
							 L44.74 286.45 ZM44.74 286.45 L55.16 286.45 L55.16 275.16 L29.55 275.16 L29.55 286.45 L39.98 286.45 L39.98
							 299.63 L44.74 299.63 L44.74 286.45 ZM39.98 286.45 L14.37 286.45 L14.37 299.63 L25.61 299.63 L25.61 326.56
							 L29.51 326.56 L29.51 299.63 L39.98 299.63 L39.98 286.45 Z" class="st3"/>
			</g>
			<g id="shape4-70" v:mID="4" v:groupContext="shape" transform="translate(19.2341,-30.9966)">
				<title>Sheet.4</title>
				<v:userDefs>
					<v:ud v:nameU="SurroundingRegionColor" v:prompt="" v:val="VT0(1):26"/>
					<v:ud v:nameU="SurroundingRegionColor" v:prompt="" v:val="VT5(#ebebeb)"/>
				</v:userDefs>
				<path d="M69.89 327.76 A1.54734 1.54734 -180 1 0 66.79 327.76 A1.54734 1.54734 -180 1 0 69.89 327.76 ZM58.85 333.42
							 L69.89 333.42 L69.89 332.37 L58.85 332.37 L58.85 333.42 ZM58.85 336.58 L69.89 336.58 L69.89 335.54 L58.85
							 335.54 L58.85 336.58 ZM58.85 339.75 L69.89 339.75 L69.89 338.7 L58.85 338.7 L58.85 339.75 ZM39.98 327.76
							 A1.54734 1.54734 -180 1 0 36.89 327.76 A1.54734 1.54734 -180 1 0 39.98 327.76 ZM28.95 333.42 L39.98
							 333.42 L39.98 332.37 L28.95 332.37 L28.95 333.42 ZM28.95 336.58 L39.98 336.58 L39.98 335.54 L28.95 335.54
							 L28.95 336.58 ZM28.95 339.75 L39.98 339.75 L39.98 338.7 L28.95 338.7 L28.95 339.75 ZM11.03 327.76 A1.54734
							 1.54734 -180 1 0 7.94 327.76 A1.54734 1.54734 -180 1 0 11.03 327.76 ZM-0 333.42 L11.03 333.42 L11.03
							 332.37 L-0 332.37 L-0 333.42 ZM-0 336.58 L11.03 336.58 L11.03 335.54 L-0 335.54 L-0 336.58 ZM-0 339.75
							 L11.03 339.75 L11.03 338.7 L-0 338.7 L-0 339.75 Z" class="st6"/>
			</g>
			<g id="shape1-73" v:mID="1" v:groupContext="groupContent">
				<v:textBlock v:margins="rect(4,4,4,4)" v:tabSpace="42.5197"/>
				<v:textRect cx="51.7323" cy="345.416" width="120.83" height="24.8035"/>
				<text x="-2.73" y="349.62" class="st13" v:langID="2057"><v:paragraph v:horizAlign="1"/><v:tabList/>Compute Servers</text>			</g>
		</g>
		<g id="shape10-75" v:mID="10" v:groupContext="shape" transform="translate(336.979,-211.286)">
			<title>Sheet.10</title>
			<desc>Scheduler</desc>
			<v:textBlock v:margins="rect(4,4,4,4)" v:tabSpace="42.5197"/>
			<v:textRect cx="59.2732" cy="329.746" width="118.55" height="20"/>
			<rect x="0" y="319.746" width="118.546" height="20" class="st15"/>
			<text x="27.75" y="333.95" class="st13" v:langID="2057"><v:paragraph v:horizAlign="1"/><v:tabList/>Scheduler</text>		</g>
		<g id="shape16-78" v:mID="16" v:groupContext="shape" transform="translate(133.394,-61.2077)">
			<title>Sheet.16</title>
			<desc>Shared Storage</desc>
			<v:textBlock v:margins="rect(4,4,4,4)" v:tabSpace="42.5197"/>
			<v:textRect cx="59.2732" cy="329.746" width="118.55" height="20"/>
			<rect x="0" y="319.746" width="118.546" height="20" class="st15"/>
			<text x="10.24" y="333.95" class="st13" v:langID="2057"><v:paragraph v:horizAlign="1"/><v:tabList/>Shared Storage</text>		</g>
		<g id="shape41-81" v:mID="41" v:groupContext="shape" transform="translate(14.9297,-211.286)">
			<title>Sheet.41</title>
			<desc>User</desc>
			<v:textBlock v:margins="rect(4,4,4,4)" v:tabSpace="42.5197"/>
			<v:textRect cx="46.9988" cy="329.746" width="94" height="20"/>
			<rect x="0" y="319.746" width="93.9976" height="20" class="st1"/>
			<text x="32.22" y="333.95" class="st13" v:langID="2057"><v:paragraph v:horizAlign="1"/><v:tabList/>User</text>		</g>
		<g id="shape42-84" v:mID="42" v:groupContext="shape" transform="translate(144.717,-141.212) rotate(-15)">
			<title>Sheet.42</title>
			<desc>HPC Network</desc>
			<v:textBlock v:margins="rect(4,4,4,4)" v:tabSpace="42.5197"/>
			<v:textRect cx="76" cy="329.746" width="152" height="20"/>
			<rect x="0" y="319.746" width="152" height="20" class="st16"/>
			<text x="25.08" y="335.15" class="st17" v:langID="2057"><v:paragraph v:horizAlign="1"/><v:tabList/>HPC Network</text>		</g>
	</g>
</svg>
